<svg id="SvgjsSvg1017" xmlns="http://www.w3.org/2000/svg" version="1.1" xmlns:xlink="http://www.w3.org/1999/xlink" xmlns:svgjs="http://svgjs.com/svgjs" width="19" height="11" viewBox="0 0 19 11"><title>behance</title><desc>Created with Avocode.</desc><defs id="SvgjsDefs1018"></defs><path id="SvgjsPath1019" d="M181 5257.03H186.214C188.324 5257.03 189.751 5257.759999999999 189.751 5259.7699999999995C189.751 5260.83 189.208 5261.57 188.246 5262.03C189.596 5262.4 190.279 5263.42 190.279 5264.759999999999C190.279 5266.949999999999 188.37 5267.889999999999 186.369 5267.889999999999H181ZM183.227 5261.47H185.903C186.757 5261.47 187.393 5261.09 187.393 5260.18C187.393 5259.150000000001 186.585 5258.9400000000005 185.717 5258.9400000000005H183.227ZM183.227 5266.05H186.043C187.005 5266.05 187.842 5265.75 187.842 5264.63C187.842 5263.52 187.12900000000002 5263.08 186.08900000000003 5263.08H183.22700000000003ZM193.2 5264.61C193.262 5265.969999999999 193.945 5266.38 195.17 5266.38C196.05499999999998 5266.38 196.76899999999998 5266.2300000000005 196.909 5265.74H198.84799999999998C198.22799999999998 5267.59 196.909 5268 195.093 5268C192.564 5268 190.99699999999999 5266.31 190.99699999999999 5263.89C190.99699999999999 5261.55 192.65699999999998 5259.76 195.093 5259.76C197.82299999999998 5259.76 199.142 5262.2 198.988 5264.610000000001ZM196.784 5263.45C196.583 5262.36 196.101 5261.38 195.031 5261.38C193.63400000000001 5261.38 193.231 5262.85 193.20000000000002 5263.45ZM192 5259V5258H198V5259Z " fill="#ffffff" fill-opacity="1" transform="matrix(1,0,0,1,-181,-5257)"></path></svg>