<svg id="SvgjsSvg1010" xmlns="http://www.w3.org/2000/svg" version="1.1" xmlns:xlink="http://www.w3.org/1999/xlink" xmlns:svgjs="http://svgjs.com/svgjs" width="50" height="50" viewBox="0 0 50 50"><title>ellipse</title><desc>Created with Avocode.</desc><defs id="SvgjsDefs1011"><clipPath id="SvgjsClipPath1014"><path id="SvgjsPath1013" d="M683 556C696.807 556 708 567.193 708 581C708 594.807 696.807 606 683 606C669.193 606 658 594.807 658 581C658 567.193 669.193 556 683 556Z " fill="#ffffff"></path></clipPath></defs><path id="SvgjsPath1012" d="M683 556C696.807 556 708 567.193 708 581C708 594.807 696.807 606 683 606C669.193 606 658 594.807 658 581C658 567.193 669.193 556 683 556Z " fill-opacity="0" fill="#ffffff" stroke-dashoffset="0" stroke-linejoin="miter" stroke-linecap="butt" stroke-opacity="1" stroke="#ffffff" stroke-miterlimit="50" stroke-width="2" clip-path="url(&quot;#SvgjsClipPath1014&quot;)" transform="matrix(1,0,0,1,-658,-556)"></path></svg>