<svg id="SvgjsSvg1014" xmlns="http://www.w3.org/2000/svg" version="1.1" xmlns:xlink="http://www.w3.org/1999/xlink" xmlns:svgjs="http://svgjs.com/svgjs" width="16" height="17" viewBox="0 0 16 17"><title>google plus</title><desc>Created with Avocode.</desc><defs id="SvgjsDefs1015"></defs><path id="SvgjsPath1016" d="M159.52 5264.23C157.887 5263.07 157.276 5262.53 158.322 5261.61C159.367 5260.69 160.19400000000002 5259.94 160.19400000000002 5258.23C160.19400000000002 5256.5199999999995 158.77900000000002 5255.65 158.77900000000002 5255.65C158.77900000000002 5255.65 159.80200000000002 5255.799999999999 160.34700000000004 5255.49C160.89200000000002 5255.19 161.13000000000002 5254.99 161.13000000000002 5254.99C160.12900000000002 5254.99 156.97200000000004 5254.99 155.92600000000002 5254.99C154.882 5254.99 151.98600000000002 5256.17 151.98600000000002 5258.929999999999C151.98600000000002 5261.69 154.99 5262.289999999999 156.08 5262.24C155.46900000000002 5262.99 155.99200000000002 5263.67 156.31900000000002 5264.01C156.64700000000002 5264.37 156.58 5264.47 156.19000000000003 5264.47C155.79600000000002 5264.47 150.96300000000002 5264.530000000001 150.96300000000002 5267.9800000000005C150.96300000000002 5271.4400000000005 157.38600000000002 5271.68 159.49800000000002 5269.820000000001C161.609 5267.960000000001 161.15200000000002 5265.39 159.52 5264.2300000000005ZM156.428 5261.56C153.83599999999998 5261.56 152.66 5255.52 155.709 5255.52C158.082 5255.43 159.867 5261.56 156.428 5261.56ZM156.12 5270.02C153.967 5270.02 152.812 5268.950000000001 152.812 5267.35C152.812 5265.75 154.381 5264.96 157.32000000000002 5264.96C158.11700000000002 5265.57 159.54100000000003 5266.31 159.54100000000003 5267.81C159.54100000000003 5269.3 158.27300000000002 5270.02 156.12000000000003 5270.02ZM162.997 5255.03V5257H161.00500000000002V5258.02H162.997V5259.990000000001H164.01500000000001V5258.02H165.97400000000002V5257H164.01500000000001V5255.03Z " fill="#ffffff" fill-opacity="1" transform="matrix(1,0,0,1,-150,-5254)"></path></svg>