<svg id="SvgjsSvg1023" xmlns="http://www.w3.org/2000/svg" version="1.1" xmlns:xlink="http://www.w3.org/1999/xlink" xmlns:svgjs="http://svgjs.com/svgjs" width="16" height="16" viewBox="0 0 16 16"><title>instagram</title><desc>Created with Avocode.</desc><defs id="SvgjsDefs1024"></defs><path id="SvgjsPath1025" d="M259.4 5255H246.59999999999997C245.71999999999997 5255 244.99999999999997 5255.72 244.99999999999997 5256.6V5269.400000000001C244.99999999999997 5270.280000000001 245.71999999999997 5271.000000000001 246.59999999999997 5271.000000000001H259.4C260.28 5271.000000000001 261 5270.280000000001 261 5269.400000000001V5256.6C261 5255.72 260.28 5255 259.4 5255ZM253 5259.8C254.76 5259.8 256.2 5261.24 256.2 5263C256.2 5264.76 254.76 5266.2 253 5266.2C251.24 5266.2 249.8 5264.76 249.8 5263C249.8 5261.24 251.24 5259.8 253 5259.8ZM247 5269.4C246.76 5269.4 246.6 5269.24 246.6 5269V5262.2H248.28C248.2 5262.44 248.2 5262.76 248.2 5263C248.2 5265.64 250.35999999999999 5267.8 253 5267.8C255.64 5267.8 257.8 5265.64 257.8 5263C257.8 5262.76 257.8 5262.44 257.72 5262.2H259.40000000000003V5269C259.40000000000003 5269.24 259.24 5269.4 259.00000000000006 5269.4ZM259.4 5258.6C259.4 5258.84 259.23999999999995 5259 259 5259H257.4C257.15999999999997 5259 257 5258.84 257 5258.6V5257C257 5256.76 257.16 5256.6 257.4 5256.6H259C259.24 5256.6 259.4 5256.76 259.4 5257Z " fill="#ffffff" fill-opacity="1" transform="matrix(1,0,0,1,-245,-5255)"></path></svg>