<svg id="SvgjsSvg1020" xmlns="http://www.w3.org/2000/svg" version="1.1" xmlns:xlink="http://www.w3.org/1999/xlink" xmlns:svgjs="http://svgjs.com/svgjs" width="17" height="16" viewBox="0 0 17 16"><title>pinterest</title><desc>Created with Avocode.</desc><defs id="SvgjsDefs1021"></defs><path id="SvgjsPath1022" d="M221.988 5255.02C217.57 5255.02 213.988 5258.59 213.988 5263C213.988 5266.29 215.978 5269.11 218.821 5270.34C218.8 5269.78 218.82 5269.12 218.962 5268.52C219.11599999999999 5267.870000000001 219.99499999999998 5264.150000000001 219.99499999999998 5264.150000000001C219.99499999999998 5264.150000000001 219.73899999999998 5263.64 219.73899999999998 5262.88C219.73899999999998 5261.6900000000005 220.42899999999997 5260.81 221.28699999999998 5260.81C222.01699999999997 5260.81 222.36999999999998 5261.35 222.36999999999998 5262.01C222.36999999999998 5262.74 221.902 5263.84 221.66099999999997 5264.85C221.45999999999998 5265.700000000001 222.08899999999997 5266.400000000001 222.92899999999997 5266.400000000001C224.44899999999998 5266.400000000001 225.47299999999998 5264.450000000001 225.47299999999998 5262.14C225.47299999999998 5260.38 224.29 5259.070000000001 222.134 5259.070000000001C219.69799999999998 5259.070000000001 218.17999999999998 5260.880000000001 218.17999999999998 5262.900000000001C218.17999999999998 5263.6 218.38699999999997 5264.09 218.70999999999998 5264.4800000000005C218.85799999999998 5264.650000000001 218.879 5264.72 218.825 5264.92C218.786 5265.07 218.69899999999998 5265.42 218.66199999999998 5265.57C218.60799999999998 5265.7699999999995 218.44299999999998 5265.84 218.26 5265.759999999999C217.13799999999998 5265.3099999999995 216.61499999999998 5264.079999999999 216.61499999999998 5262.699999999999C216.61499999999998 5260.4299999999985 218.539 5257.699999999999 222.35299999999998 5257.699999999999C225.42 5257.699999999999 227.43599999999998 5259.909999999999 227.43599999999998 5262.289999999999C227.43599999999998 5265.429999999999 225.68499999999997 5267.779999999999 223.10399999999998 5267.779999999999C222.237 5267.779999999999 221.422 5267.309999999999 221.14299999999997 5266.779999999999C221.14299999999997 5266.779999999999 220.67699999999996 5268.629999999999 220.57899999999998 5268.979999999999C220.40999999999997 5269.589999999998 220.08499999999998 5270.199999999999 219.784 5270.6799999999985C220.483 5270.879999999998 221.22299999999998 5270.989999999999 221.988 5270.989999999999C226.406 5270.989999999999 229.988 5267.409999999999 229.988 5262.999999999999C229.988 5258.589999999999 226.406 5255.0199999999995 221.988 5255.0199999999995Z " fill="#ffffff" fill-opacity="1" transform="matrix(1,0,0,1,-213,-5255)"></path></svg>