<svg id="SvgjsSvg1011" xmlns="http://www.w3.org/2000/svg" version="1.1" xmlns:xlink="http://www.w3.org/1999/xlink" xmlns:svgjs="http://svgjs.com/svgjs" width="17" height="13" viewBox="0 0 17 13"><title>twitter</title><desc>Created with Avocode.</desc><defs id="SvgjsDefs1012"></defs><path id="SvgjsPath1013" d="M135.562 5257.59C135.293 5257.74 134.484 5258.03 133.73000000000002 5258.110000000001C134.21300000000002 5257.85 134.92900000000003 5256.990000000001 135.10600000000002 5256.320000000001C134.64100000000002 5256.610000000001 133.574 5257.040000000001 133.04600000000002 5257.040000000001C133.04600000000002 5257.040000000001 133.04600000000002 5257.050000000001 133.04800000000003 5257.050000000001C132.44600000000003 5256.420000000001 131.60000000000002 5256.030000000001 130.66100000000003 5256.030000000001C128.83900000000003 5256.030000000001 127.36000000000003 5257.500000000001 127.36000000000003 5259.320000000001C127.36000000000003 5259.570000000001 127.39000000000003 5259.820000000001 127.44500000000002 5260.06H127.44400000000002C124.97100000000002 5259.990000000001 122.08100000000002 5258.76 120.45200000000001 5256.64C119.45200000000001 5258.37 120.31700000000001 5260.29 121.45300000000002 5260.990000000001C121.06500000000001 5261.02 120.34800000000001 5260.950000000001 120.01100000000002 5260.620000000001C119.98800000000003 5261.77 120.54200000000003 5263.290000000001 122.55700000000003 5263.840000000001C122.16900000000003 5264.050000000001 121.48300000000003 5263.990000000001 121.18300000000004 5263.940000000001C121.28900000000003 5264.910000000002 122.64800000000004 5266.180000000001 124.13300000000004 5266.180000000001C123.60400000000004 5266.790000000001 121.79700000000004 5267.9000000000015 119.56200000000004 5267.550000000001C121.08100000000005 5268.470000000001 122.85100000000004 5269.000000000001 124.72500000000004 5269.000000000001C130.05000000000004 5269.000000000001 134.18600000000004 5264.700000000001 133.96300000000002 5259.380000000001C133.96300000000002 5259.380000000001 133.961 5259.370000000001 133.961 5259.360000000001C133.961 5259.35 133.96300000000002 5259.330000000001 133.96300000000002 5259.320000000001C133.96300000000002 5259.31 133.961 5259.290000000001 133.961 5259.27C134.44600000000003 5258.9400000000005 135.096 5258.360000000001 135.562 5257.59Z " fill="#ffffff" fill-opacity="1" transform="matrix(1,0,0,1,-119,-5256)"></path></svg>